<?xml version="1.0" standalone="no"?>
<!DOCTYPE svg PUBLIC "-//W3C//DTD SVG 20010904//EN"
 "http://www.w3.org/TR/2001/REC-SVG-20010904/DTD/svg10.dtd">
<svg version="1.0" xmlns="http://www.w3.org/2000/svg"
 width="512.000000pt" height="512.000000pt" viewBox="0 0 512.000000 512.000000"
 preserveAspectRatio="xMidYMid meet">

<g transform="translate(0.000000,512.000000) scale(0.100000,-0.100000)"
fill="#000000" stroke="none">
<path d="M2660 5114 c-323 -41 -589 -190 -715 -399 -67 -112 -96 -257 -75
-374 6 -34 9 -65 6 -68 -3 -3 -37 13 -77 36 -474 273 -846 191 -935 -206 -66
-296 159 -514 666 -644 l45 -12 -110 -27 c-327 -82 -521 -235 -553 -435 -19
-117 20 -244 100 -325 177 -176 442 -217 697 -107 l79 35 -95 -107 c-165 -184
-314 -432 -389 -646 -15 -44 -29 -82 -30 -84 -2 -2 -20 10 -41 27 -208 163
-511 262 -808 262 -111 0 -126 -2 -171 -25 -105 -55 -124 -105 -89 -239 72
-286 231 -497 462 -615 118 -60 303 -96 456 -90 l88 4 -7 -170 c-3 -93 -1
-312 5 -485 13 -342 15 -350 74 -394 61 -45 192 -17 213 47 4 12 8 222 9 467
1 454 6 535 46 780 60 369 190 692 369 921 78 99 291 309 315 309 10 0 125
-104 125 -113 0 -4 -19 -36 -41 -69 -83 -122 -152 -285 -179 -421 -15 -75 -15
-247 0 -312 29 -128 116 -287 188 -343 81 -64 119 -77 222 -77 85 0 100 3 141
27 108 64 167 166 213 370 6 26 6 26 65 -32 70 -69 195 -135 286 -151 211 -39
477 79 610 270 41 59 85 164 85 203 0 22 9 23 38 2 36 -25 153 -70 220 -84
179 -37 351 45 456 219 86 142 98 281 35 409 -52 107 -181 231 -338 327 l-53
32 83 7 c286 23 500 145 585 331 113 245 -43 542 -371 707 -72 37 -221 85
-287 93 -32 4 -58 11 -58 15 0 4 17 20 38 36 65 49 153 137 213 212 182 227
182 442 -1 644 -206 228 -469 250 -737 62 -104 -72 -170 -132 -254 -232 l-78
-92 -6 35 c-3 19 -8 52 -11 73 -3 20 -21 69 -39 108 -63 130 -216 247 -379
289 -61 15 -244 27 -306 19z m267 -298 c128 -58 193 -167 179 -299 -11 -99
-74 -271 -146 -397 -68 -118 -64 -114 -160 -125 -30 -3 -93 -19 -140 -36 -47
-16 -92 -32 -101 -35 -22 -8 -204 140 -274 223 -31 36 -70 93 -88 126 -28 55
-32 71 -31 142 0 99 20 147 95 230 64 70 145 124 237 159 103 39 138 45 257
43 97 -2 118 -6 172 -31z m1228 -80 c50 -21 125 -95 147 -145 55 -123 -69
-281 -372 -471 -191 -121 -543 -289 -564 -270 -21 20 112 327 212 488 163 262
339 412 483 412 33 0 75 -6 94 -14z m-2658 -596 c92 -35 230 -112 328 -183 84
-61 215 -186 256 -244 l30 -43 -53 0 c-236 0 -558 69 -730 156 -94 48 -188
155 -188 214 0 53 60 112 134 131 52 13 141 1 223 -31z m1478 -426 c154 -40
292 -180 335 -343 16 -61 14 -205 -5 -275 -55 -206 -220 -381 -431 -457 -45
-17 -83 -22 -159 -23 -124 -1 -180 21 -253 98 -92 97 -126 196 -126 361 1 222
94 418 259 542 137 103 248 132 380 97z m1281 -54 c148 -26 268 -93 353 -195
47 -56 81 -124 81 -158 0 -63 -89 -138 -211 -178 -105 -34 -280 -34 -389 0
-132 41 -290 126 -437 234 -44 32 -53 45 -62 85 -12 57 -12 57 114 118 180 86
389 122 551 94z m-2276 -476 c0 -17 -90 -132 -157 -200 -127 -130 -257 -194
-390 -194 -181 0 -275 133 -177 249 34 40 147 96 237 116 102 22 487 46 487
29z m1667 -440 c209 -63 455 -168 584 -249 68 -44 140 -117 161 -164 36 -80 2
-177 -76 -215 -37 -18 -40 -18 -104 -1 -104 29 -223 115 -392 284 -164 164
-335 381 -301 381 5 0 63 -16 128 -36z m-282 -378 c88 -59 195 -171 229 -240
43 -85 47 -159 12 -231 -47 -95 -151 -165 -271 -182 -95 -13 -205 47 -260 141
-53 92 -80 258 -69 419 l7 97 70 36 c38 19 79 41 90 49 19 13 26 11 76 -17 31
-17 83 -50 116 -72z m-800 -216 c42 -259 26 -558 -35 -632 -18 -22 -20 -22
-47 -8 -18 10 -41 41 -63 84 -32 63 -35 77 -38 176 -5 122 17 221 70 325 35
71 89 157 94 152 2 -1 10 -45 19 -97z m-1875 -427 c176 -43 328 -126 466 -253
33 -30 44 -48 44 -70 0 -39 -22 -45 -170 -44 -218 1 -364 76 -479 244 -29 42
-81 141 -81 154 0 6 165 -17 220 -31z"/>
</g>
</svg>
