<?xml version="1.0" encoding="utf-8"?>
<!-- Generator: Adobe Illustrator 21.1.0, SVG Export Plug-In . SVG Version: 6.00 Build 0)  -->
<svg version="1.1" id="Capa_1" xmlns="http://www.w3.org/2000/svg" xmlns:xlink="http://www.w3.org/1999/xlink" x="0px" y="0px"
	 viewBox="0 0 504 504" style="enable-background:new 0 0 504 504;" xml:space="preserve">
<g>
	<path d="M427.3,323.3c-1.7-1.3-3.5-2.2-5.5-2.8c-3-0.9-3-0.9-1-3.4c1.4-1.8,2.7-3.7,3.7-5.7c5.7-11.4-1.2-22.5-14-22.8
		c-6.3-0.1-11.7,2.1-16.8,5.3c-1.8,1.1-2.6,1-3.3-1.1c-0.8-2.5-1.9-5-3.3-7.3c-3.6-6-9-8.5-15.4-7.1c-3,0.7-5.9,1.9-8.4,3.7
		c-5.6,3.9-8.5,9.6-10.6,15.9c-1.1,3.2-1.2,3.3-4.3,1.8c-3-1.5-6.1-2.4-9.4-2.9c-10.7-1.7-19.4,5.8-19.6,16.6
		c-0.1,4.9,1.8,8.9,4.8,12.5c-8.6,1.2-17,0.6-25.4,1.5c-3.9,0.4-7.5-4.7-6.7-9c1.5-7.3,3.7-14.3,6.2-21.3c1.9-5.3,5-8.2,10.7-9.6
		c17.2-4.4,33.7-10.7,49-20c18.3-11.1,31.3-26.8,40-46.2c5.1-11.4,7.8-23.4,10.8-35.4c1.9-7.5,4.2-14.9,7.7-21.8
		c1.8-3.6,4-6.9,6.3-10.3c1.8-2.7,2-5.6,0.4-8.5c-1.5-2.7-4-3.4-6.9-3.3c-2.1,0.1-4.1,0.3-6.2,0.2c-12.1-0.6-24.3,0.2-36.4-0.7
		c-6.1-0.5-12.3,0.3-18.5,0.4c-13,0.1-25.9,1.1-38.8,2.8c-3.2,0.4-3.2,0.4-3.5-2.9c-1.1-11.5-4.5-22.2-11.8-31.4
		c-8.2-10.3-19-16.9-31.2-21.3c-15.1-5.4-30.8-7.4-46.8-7.1c-4.1,0-8.3,0-12.4,0c-3.3,0-6.6-0.1-9.9,0c-11.4,0.5-22.7,1.9-34.1,2.5
		c-12.1,0.7-23.9,2.7-35.6,5.9c-8.5,2.4-16.5,5.6-23.6,11c-16,12.3-12.3,35.3,2.5,43.9c6.6,3.9,13.8,5.9,21.3,6.9
		c5.5,0.7,11,1,16.8,1.5c-1.2,1.8-2.3,3.3-3.3,4.9c-8.1,13.4-3.3,31.2,10.5,38.2c4.3,2.2,9,3.6,13.8,4.1c2.3,0.3,3,0.9,2.5,3.3
		c-2.4,13.9,6.9,24.6,16.9,28.8c1.7,0.7,3.5,1.4,5.8,1.9c-12,7-23.7,13.3-35.6,19.2c-5.8,2.9-11.8,5.4-18.2,6.6
		c-9,1.7-17.2,0.2-24.2-6c-2.5-2.2-5.2-4.3-8.2-6.1c-6.3-3.7-12.9-5.1-20.1-2.8c-10.7,3.5-14.6,14.5-8.2,23.7
		c1.1,1.6,0.9,2.3-0.6,3.5c-2.6,2.1-5.6,3.9-6.5,7.5c0,1.6,0,3.3,0,4.9c0.6,2.1,1.9,3.6,4,4.3c2.5,0.8,2.7,2.2,1.7,4.5
		c-1.3,3-1.8,6.2-1,9.6c2.1,8.4,7.7,13.1,15.8,15.3c7.4,2,14.7,1.1,22-0.7c9.6-2.3,19.2-4.8,29.1-5.7c12.3-1.2,24.6-1.8,36.9-3
		c19.1-1.9,38-4.3,56.9-7.6c4.4-0.8,8.8-1.7,13.7-2.4c-3.7,5.4-6.1,10.7-8.7,16c-2.5,5-6,8-11.9,8.4c-5.8,0.4-10.9,2.9-15.6,6.2
		c-4.8,3.4-5.5,5.6-3.6,11.3c0.4,1.3,0.1,1.9-1.1,2.3c-1.8,0.5-3.6,1-5.3,1.6c-27.8,9.5-54.2,21.8-79.1,37.5
		c-6.4,4-12.8,8-18.7,12.6c-5.2,4-4,10.9,2,13.2c1,0,2.1,0,3.1,0c1.5-0.6,3.1-1,4.5-2c16.4-11.7,33.7-21.7,51.8-30.6
		c3.3-1.6,6.6-2.2,10.2-1.8c15,1.8,28.3,7.7,40,17.2c4.1,3.4,7.5,7.3,11.1,11.1c2.7,2.8,5.8,3.1,8.6,1c2.8-2.1,4.2-5,3.4-8.6
		c-1.5-7.1-4.3-13.8-7.8-20.1c-3.6-6.3-7.9-12.1-13.3-16.9c-1.4-1.3-1.2-1.9,0.5-2.4c1.6-0.4,3-0.2,4.5,0.4c2.5,1,4.8,0.3,7-1.1
		c1.4-0.9,1.9-3.5,4-2.9c1.8,0.5,1.6,2.9,2.5,4.4c1.6,2.7,4.9,4.1,8.3,3.5c3-0.6,5-3.1,5.3-6.4c0.5-5.9,0.5-5.9,6.4-6.9
		c0.6-0.1,1.2-0.1,1.8-0.3c2.2-0.6,3.8-0.2,4.6,2.1c0.4,1.1,1.4,1.7,2.4,2.3c3.6,2.3,9.6,1.3,11.3-4.6c0.2-0.8,0.3-1.8,1.3-1.9
		c1-0.1,1.2,1,1.6,1.7c0.9,1.4,1.5,3,2.8,4.1c2.2,1.9,4.8,2.6,7.5,1.4c2.8-1.2,4.9-3.4,4.7-6.6c-0.2-3,1-3.6,3.5-3.3
		c1.4,0.1,2.9-0.2,4.3-0.3c5.4-0.6,10.8-0.1,16.5-0.4c-0.8,1.9-1.6,3.2-2.3,4.6c-3.5,6.9-3.1,13.7,0.6,20.4c2.9,5.1,7.4,7.6,13.1,8
		c4,0.3,7.8-0.4,11.5-1.9c2.2-0.9,3-0.4,3.3,2.1c0.6,4.5,2,8.8,5.9,11.5c8.5,5.8,20.1,6.2,25.4-7.1c0.9-2.3,1.7-4.8,2.7-7.5
		c2.4,2.4,4.5,4.5,7,6.1c5.6,3.6,11.1,3.1,16-1.5c5-4.7,6.2-10.4,5.3-16.9c-0.3-2-2.2-4.3-1.1-5.8c1.1-1.6,4-1.1,6.1-1.6
		c7.4-2,13.7-5.3,14.8-14c0-2.3,0-4.5,0-6.8C430.5,327.9,429.8,325.2,427.3,323.3z M197.2,364.4c7.5-2.1,12.6,2,17.2,7.1
		C208.8,368.9,203.2,366.3,197.2,364.4z M404.7,156.5c-2.5,4.8-4.3,9.4-6.1,14.2c-4.3-4.2-7.8-8.6-10-14.2
		C394.1,156.5,399.2,156.5,404.7,156.5z M286.7,115.2c9,8.8,12.4,20.1,12.6,32.5c0,1.4-0.5,1.9-1.7,2.3c-3.5,1.2-7,2.5-10,4.7
		c-1.6,1.2-2.2,0.9-3.1-0.8c-6.4-11.8-14.2-22.6-23.5-32.4c-10.1-10.6-21.4-19.5-34.4-26.4C248.5,96.5,270,98.8,286.7,115.2z
		 M278.3,314.3c-1,2.4-2.6,4.3-5.1,5.1c-8.3,2.6-14.9,7.5-19.8,14.8c-2-3-1.6-5.4-0.2-8.5c4.2-8.9,9.7-16.9,15.2-24.9
		c3-4.4,6.5-6.9,11.8-7.2c1.7-0.1,3.4-0.7,5.6-1.2C283.3,300.1,281.2,307.3,278.3,314.3z M248,286.6c-28.1,5.5-56.4,9.2-85,11
		c-17.6,1.1-35.3,2.1-52.3,7.9c-3.3,1.1-6.8,1.4-10.3,1.5c-5.3,0.1-7.3-2.4-6.3-7.6c0.3-1.4,0.8-1.8,2.2-1.9c3.5-0.4,6.1-2.9,6.5-6
		c0.5-3.5-1.7-5.2-4.5-6.5c-1.9-0.9-3.8-1.9-6.2-3.1c3.3-1.6,6.4-1.8,9.4-2.1c4.4-0.4,6.7-2.8,6.8-6.8c0.1-3.8-1.7-5.6-6.4-6.4
		c-3.8-0.6-5.1-2-5.5-5.4c-0.3-2.3,0.9-2.5,2.5-1.8c2.2,0.9,4,2.5,5.9,3.9c5.6,4.4,11.1,8.9,18.1,10.8c9.7,2.5,19.2,1.3,28.5-1.6
		c16.9-5.3,32.1-14,47.3-22.9c8.7-5.1,17.4-10.2,26.1-15.2c3.6-2.1,4.8-4.4,3.8-7.5c-1.1-3.2-4.3-5.2-8-4.9
		c-5.7,0.6-11.4,1.4-17.2,0.9c-7-0.6-12.2-4-16.1-9.6c-4.2-6-3-10,3.7-12.8c3.1-1.3,4.7-3.5,4.7-6.9c-0.1-4.1-2.3-6.4-6.4-6
		c-5.4,0.5-10.9,0.9-16.3,0.5c-5.8-0.4-11.1-2-15-6.8c-4-5-4.5-10-1-15.4c5-7.6,12.4-12.2,20.6-15.5c2.8-1.1,4.8-2.7,5-5.9
		c0.3-4.6-3.5-7.6-8.5-6.8c-8.8,1.4-17.6,2-26.5,1.5c-8.6-0.5-17.2-1.7-25.5-4.1c-1.6-0.4-3.1-1.1-4.5-1.9
		c-5.6-3.1-7.5-8.4-5.1-14.4c2.6-6.4,7.6-10.3,13.8-12.9c7.5-3.1,15.5-4,23.4-5.3c12-1.9,24-3.6,36.2-2.9
		c20.8,1.2,38.7,9.4,54.6,22.6c18.1,15,30.8,34,40.2,55.4c1.9,4.3,5.5,5.5,9.5,3.1c2.5-1.5,3.7-3.7,2.9-6.5c-0.9-3.2,0.5-5.1,3-6.6
		c4.7-2.8,9.9-3.8,15.2-4.7c15.3-2.6,30.9-3.4,46.4-3.8c4.9-0.1,9.9-0.2,14.8-0.5c1.6-0.1,2.3,0.5,2.8,2c3.5,9.8,9.7,17.8,17.7,24.4
		c0.9,0.8,1.7,1.3,1.3,2.7c-3.2,11.4-5.8,22.9-10.9,33.6c-9.1,19.5-24.4,32.5-43.5,41.5c-14.2,6.7-29.2,10.8-44.3,14.8
		C279.9,279.8,264,283.4,248,286.6z M347.7,356.8c-3,1.8-6.1,3.4-9.8,3.7c-2.2-0.3-4.7-0.5-6-2.8c-1.4-2.3-0.1-4.4,1.2-6.2
		c2-3,4.6-5.2,7.8-6.8c1.1-0.6,2.1-1.1,2.5,1c0.7,3.4,2.4,6.3,4.7,8.8C349.2,355.6,349,356,347.7,356.8z M351.1,320.1
		c-3.1,4.7-3.6,5-8.6,2.5c-2.2-1.1-4.4-2.2-6.3-3.7c-3.4-2.5-2.9-4.9,1.1-6.4c1-0.4,2.1-0.6,2.9-0.8c5.2,0.4,8.2,3.6,11.2,6.9
		C351.9,319.2,351.4,319.6,351.1,320.1z M387,318.3c-3-0.1-5.6-1-8.6-2C382.7,314.4,384.8,314.9,387,318.3z M367.9,296.5
		c0.8-1.5,1.8-2.7,3.4-3.5c2.6-1.3,4.2-0.7,5.4,1.9c0.1,0.2,0.2,0.4,0.3,0.6c0.7,2,2.2,4.3,1.7,6.1c-0.5,2-3.6,1.5-5.5,2.3
		c-2.9,1.2-5.7,2.7-8.8,4.3C365,303.9,366,300,367.9,296.5z M369.9,366.7c-0.5,2.3-0.7,4.6-2.2,6.7c-2.9-2.4-5.2-4.9-4.9-8.9
		c0.1-1.9,0.5-2.9,2.9-2.9C370.9,361.8,370.9,361.6,369.9,366.7z M355.5,341.5c5.2,3,10.2,5,15.5,6.1
		C364.9,350.5,358.4,348.1,355.5,341.5z M381.8,335.8c-7-0.3-13.5-2.1-19.6-5.6c-1.4-0.8-1.6-1.3-0.4-2.6c2.1-2.4,3.8-3.4,7.1-1.4
		c5.4,3.2,11.5,4.7,18,5.4C386.5,334.8,385.1,336,381.8,335.8z M396.1,363.8c-0.9,0.5-1.6,0.2-2.3-0.3c-2.8-2.3-4.8-5.3-7.1-8.1
		c-0.5-0.6-0.3-1,0.2-1.5c3.4-4.1,4-4.1,7.1,0.3c1.6,2.3,3.1,4.6,3.5,7.3C397.5,362.6,397.1,363.3,396.1,363.8z M401,306.2
		c3-2.1,5.6-3.3,7.2-3.3c2.2,0,3.7,1.9,2.8,4.3c-1.7,4.8-6,7.4-9.9,10.2c-0.8,0.6-0.9-0.3-1.1-0.9c-0.4-1.1-0.7-2.1-1.2-3.2
		C397,308.9,397,308.9,401,306.2z M416.6,336.4c-0.9,2.3-3.3,2-5.2,2.4c-1.7,0.4-3.5,0.4-5.3,0.6c-1.3-0.2-2.6-0.2-3.9-0.5
		c-1.2-0.2-3.3,0.2-3.1-1.4c0.2-1.6,0.4-4,3.2-4.2c2-0.2,4-0.8,6.1-1.1c0.9-0.1,1.9-0.2,2.8-0.1C413.2,332.4,417,335.3,416.6,336.4z
		"/>
	<path d="M350,165c3.3,0.2,6.2-0.5,8.1,2c1.8,2.3,2.4,4.8,1,7.5c-1.6,3-4.4,3.5-7.4,3.3c-5.4-0.4-9.4,2-12,6.4
		c-1.3,2.2-2.6,4.1-4.4,5.9c-3.1,3.1-7.1,3.6-11.1,3.6c-2.9,0-5.3-2.8-5.6-5.7c-0.4-2.8,1.5-6.1,4.3-6.7c3.3-0.6,4.9-2.6,6.6-5.2
		C334.6,168.7,341.7,165.1,350,165z"/>
</g>
</svg>
